%TF.GenerationSoftware,KiCad,Pcbnew,(5.1.9)-1*%
%TF.CreationDate,2021-08-22T22:08:54+09:00*%
%TF.ProjectId,negcon_converter,6e656763-6f6e-45f6-936f-6e7665727465,rev?*%
%TF.SameCoordinates,Original*%
%TF.FileFunction,Paste,Top*%
%TF.FilePolarity,Positive*%
%FSLAX46Y46*%
G04 Gerber Fmt 4.6, Leading zero omitted, Abs format (unit mm)*
G04 Created by KiCad (PCBNEW (5.1.9)-1) date 2021-08-22 22:08:54*
%MOMM*%
%LPD*%
G01*
G04 APERTURE LIST*
G04 APERTURE END LIST*
%TO.C,DAT*%
G36*
G01*
X125500000Y-109714631D02*
X125500000Y-108214631D01*
G75*
G02*
X125750000Y-107964631I250000J0D01*
G01*
X126250000Y-107964631D01*
G75*
G02*
X126500000Y-108214631I0J-250000D01*
G01*
X126500000Y-109714631D01*
G75*
G02*
X126250000Y-109964631I-250000J0D01*
G01*
X125750000Y-109964631D01*
G75*
G02*
X125500000Y-109714631I0J250000D01*
G01*
G37*
%TD*%
%TO.C,CMD*%
G36*
G01*
X121500000Y-109714631D02*
X121500000Y-108214631D01*
G75*
G02*
X121750000Y-107964631I250000J0D01*
G01*
X122250000Y-107964631D01*
G75*
G02*
X122500000Y-108214631I0J-250000D01*
G01*
X122500000Y-109714631D01*
G75*
G02*
X122250000Y-109964631I-250000J0D01*
G01*
X121750000Y-109964631D01*
G75*
G02*
X121500000Y-109714631I0J250000D01*
G01*
G37*
%TD*%
%TO.C,+7.6V*%
G36*
G01*
X117500000Y-109714631D02*
X117500000Y-108214631D01*
G75*
G02*
X117750000Y-107964631I250000J0D01*
G01*
X118250000Y-107964631D01*
G75*
G02*
X118500000Y-108214631I0J-250000D01*
G01*
X118500000Y-109714631D01*
G75*
G02*
X118250000Y-109964631I-250000J0D01*
G01*
X117750000Y-109964631D01*
G75*
G02*
X117500000Y-109714631I0J250000D01*
G01*
G37*
%TD*%
%TO.C,GND*%
G36*
G01*
X113500000Y-109750000D02*
X113500000Y-108250000D01*
G75*
G02*
X113750000Y-108000000I250000J0D01*
G01*
X114250000Y-108000000D01*
G75*
G02*
X114500000Y-108250000I0J-250000D01*
G01*
X114500000Y-109750000D01*
G75*
G02*
X114250000Y-110000000I-250000J0D01*
G01*
X113750000Y-110000000D01*
G75*
G02*
X113500000Y-109750000I0J250000D01*
G01*
G37*
%TD*%
%TO.C,VCC*%
G36*
G01*
X109500000Y-109714631D02*
X109500000Y-108214631D01*
G75*
G02*
X109750000Y-107964631I250000J0D01*
G01*
X110250000Y-107964631D01*
G75*
G02*
X110500000Y-108214631I0J-250000D01*
G01*
X110500000Y-109714631D01*
G75*
G02*
X110250000Y-109964631I-250000J0D01*
G01*
X109750000Y-109964631D01*
G75*
G02*
X109500000Y-109714631I0J250000D01*
G01*
G37*
%TD*%
%TO.C,ATT*%
G36*
G01*
X105500000Y-109714631D02*
X105500000Y-108214631D01*
G75*
G02*
X105750000Y-107964631I250000J0D01*
G01*
X106250000Y-107964631D01*
G75*
G02*
X106500000Y-108214631I0J-250000D01*
G01*
X106500000Y-109714631D01*
G75*
G02*
X106250000Y-109964631I-250000J0D01*
G01*
X105750000Y-109964631D01*
G75*
G02*
X105500000Y-109714631I0J250000D01*
G01*
G37*
%TD*%
%TO.C,CLK*%
G36*
G01*
X101500000Y-109714631D02*
X101500000Y-108214631D01*
G75*
G02*
X101750000Y-107964631I250000J0D01*
G01*
X102250000Y-107964631D01*
G75*
G02*
X102500000Y-108214631I0J-250000D01*
G01*
X102500000Y-109714631D01*
G75*
G02*
X102250000Y-109964631I-250000J0D01*
G01*
X101750000Y-109964631D01*
G75*
G02*
X101500000Y-109714631I0J250000D01*
G01*
G37*
%TD*%
%TO.C,NC*%
G36*
G01*
X97500000Y-109714631D02*
X97500000Y-108214631D01*
G75*
G02*
X97750000Y-107964631I250000J0D01*
G01*
X98250000Y-107964631D01*
G75*
G02*
X98500000Y-108214631I0J-250000D01*
G01*
X98500000Y-109714631D01*
G75*
G02*
X98250000Y-109964631I-250000J0D01*
G01*
X97750000Y-109964631D01*
G75*
G02*
X97500000Y-109714631I0J250000D01*
G01*
G37*
%TD*%
%TO.C,ACK*%
G36*
G01*
X93500000Y-109714631D02*
X93500000Y-108214631D01*
G75*
G02*
X93750000Y-107964631I250000J0D01*
G01*
X94250000Y-107964631D01*
G75*
G02*
X94500000Y-108214631I0J-250000D01*
G01*
X94500000Y-109714631D01*
G75*
G02*
X94250000Y-109964631I-250000J0D01*
G01*
X93750000Y-109964631D01*
G75*
G02*
X93500000Y-109714631I0J250000D01*
G01*
G37*
%TD*%
M02*
